<?xml version="1.0" encoding="UTF-8"?>
<svg xmlns="http://www.w3.org/2000/svg" viewBox="0 0 1000 820">
  <defs>
    <linearGradient id="landFill" x1="0%" y1="0%" x2="100%" y2="100%">
      <stop offset="0%" stop-color="rgba(90,130,72,0.72)"/>
      <stop offset="45%" stop-color="rgba(68,108,58,0.58)"/>
      <stop offset="100%" stop-color="rgba(48,82,42,0.65)"/>
    </linearGradient>
    <linearGradient id="landStroke" x1="0%" y1="0%" x2="100%" y2="0%">
      <stop offset="0%" stop-color="rgba(200,170,100,0.5)"/>
      <stop offset="50%" stop-color="rgba(232,201,107,0.85)"/>
      <stop offset="100%" stop-color="rgba(200,170,100,0.5)"/>
    </linearGradient>
    <filter id="landGlow" x="-20%" y="-20%" width="140%" height="140%">
      <feGaussianBlur stdDeviation="3" result="blur"/>
      <feMerge>
        <feMergeNode in="blur"/>
        <feMergeNode in="SourceGraphic"/>
      </feMerge>
    </filter>
  </defs>
  <path fill="url(#landFill)" stroke="url(#landStroke)" stroke-width="2.4" filter="url(#landGlow)" d="M809.8,231.2L813.0,229.7L814.7,228.1L816.4,227.6L817.9,227.5L817.3,227.0L818.4,226.0L820.1,225.3L821.6,224.6L822.3,224.8L823.7,224.9L824.2,224.3L824.9,223.5L825.7,223.0L826.7,222.9L827.6,222.6L827.2,222.0L829.2,220.9L830.5,221.0L831.4,221.1L832.7,220.3L833.4,219.9L833.6,219.4L834.1,218.8L834.5,217.9L835.5,217.6L837.1,216.7L838.0,215.6L839.3,213.9L840.6,214.0L840.2,213.1L841.5,210.8L841.7,209.8L842.5,209.3L843.7,208.5L843.2,207.9L844.9,208.6L845.6,208.2L846.2,207.3L847.2,207.1L847.6,207.5L848.7,208.0L848.5,209.0L849.4,209.7L850.0,210.2L849.8,210.7L850.4,211.1L851.6,211.4L851.8,211.9L853.5,212.2L854.1,212.0L855.0,212.3L856.0,212.2L856.6,212.7L857.7,213.0L859.9,212.8L861.2,213.2L861.9,212.8L862.8,212.6L863.3,212.6L864.9,213.3L865.0,213.8L866.4,213.1L866.9,211.7L868.1,210.6L867.1,209.0L865.8,208.3L865.0,207.2L865.0,205.7L863.8,204.1L867.8,203.7L870.4,203.8L872.4,204.0L873.0,203.6L874.0,203.8L875.2,203.6L877.0,203.8L877.9,202.8L878.7,202.7L879.3,202.0L881.1,201.2L881.8,200.5L881.4,200.1L882.1,199.8L882.6,199.0L882.3,198.4L883.3,198.0L884.0,197.6L884.3,197.3L884.6,197.6L885.5,197.4L886.9,198.6L887.3,198.0L887.8,197.7L888.1,197.1L889.4,197.6L889.9,196.5L890.0,195.2L890.1,194.3L890.3,193.3L891.0,192.0L891.4,190.9L892.0,190.0L891.9,189.3L892.3,188.8L893.3,189.2L894.3,189.4L895.6,189.0L895.8,189.6L895.5,190.0L896.5,190.2L897.9,190.3L897.9,191.0L897.6,192.9L898.3,193.4L899.6,194.5L900.3,194.7L900.4,195.3L901.2,195.4L901.3,194.6L901.9,195.1L902.9,196.7L903.8,197.6L903.1,196.7L902.6,195.6L903.6,194.9L901.9,193.4L900.4,193.3L901.0,192.3L902.5,191.7L904.1,191.2L904.9,191.4L905.9,191.3L906.9,190.7L907.9,190.8L908.9,191.0L909.5,190.2L911.0,190.2L911.5,189.4L911.0,188.8L911.1,187.8L911.9,187.2L912.6,186.0L912.4,185.3L913.4,184.3L914.0,182.9L914.0,181.8L913.9,181.2L912.3,180.8L912.5,179.5L912.6,178.5L912.8,177.6L912.6,176.1L913.3,174.4L913.3,173.1L913.6,173.1L914.0,172.9L910.6,162.7L910.3,162.1L909.5,161.6L908.8,161.2L910.4,160.2L910.6,159.6L912.3,159.4L913.3,159.5L914.0,159.2L914.7,158.6L915.5,158.6L916.9,158.8L917.3,158.2L918.9,157.3L919.8,156.1L919.7,155.1L920.9,155.2L921.3,154.7L921.9,153.7L923.3,153.2L924.2,154.2L927.2,155.1L936.3,157.2L938.6,157.9L939.7,157.8L941.0,156.9L941.5,156.5L941.9,155.2L941.6,154.4L941.9,153.3L942.1,152.8L942.4,151.8L943.0,150.5L945.0,149.8L945.9,149.6L946.2,149.0L946.8,148.6L947.3,147.9L946.8,147.3L947.1,146.6L947.1,146.2L947.5,145.6L947.7,144.9L948.8,145.2L949.3,144.1L950.3,143.4L951.3,142.0L950.7,140.7L952.1,140.2L952.9,140.1L953.2,139.4L954.0,138.9L954.0,138.1L953.3,137.7L954.4,137.1L952.9,136.3L953.5,135.2L955.4,133.5L955.7,131.6L955.6,130.8L955.9,129.7L956.2,128.3L957.0,127.0L958.6,126.4L958.7,125.2L957.6,124.2L958.3,122.7L959.3,122.0L960.4,121.3L963.2,120.8L964.0,120.1L965.6,119.0L967.2,117.1L965.6,115.5L965.6,114.5L964.5,114.1L963.7,113.0L964.9,111.2L965.6,108.8L968.5,107.7L971.9,106.6L971.6,105.7L970.5,106.0L968.8,106.1L967.8,107.0L966.0,106.6L964.1,106.6L961.9,106.6L958.3,106.9L957.0,107.7L955.7,107.7L954.3,108.1L952.5,108.5L951.2,108.8L950.1,109.9L948.7,110.0L946.8,111.0L944.5,111.2L942.7,110.7L940.7,111.0L940.1,111.9L938.1,112.7L936.3,113.7L935.1,113.3L934.7,113.9L934.7,114.9L933.7,115.9L933.1,117.0L930.3,116.3L929.0,116.7L928.3,117.1L927.0,117.2L924.6,117.1L923.0,117.5L920.6,117.2L919.1,117.8L917.9,117.6L917.6,116.7L914.7,116.8L912.9,116.8L911.0,117.5L909.0,117.1L908.6,115.3L907.3,113.6L905.2,112.2L904.1,111.1L905.6,109.8L906.0,108.8L906.9,108.2L905.9,107.3L905.3,105.9L905.7,105.0L903.8,105.3L903.3,104.0L902.2,103.4L902.7,102.2L904.5,99.8L903.2,99.3L901.6,99.5L900.2,98.9L897.5,99.5L895.6,98.2L894.2,97.2L892.7,96.6L892.6,95.8L891.7,95.5L891.6,94.7L890.1,94.3L889.8,93.1L887.8,93.2L886.9,91.5L885.5,90.8L884.3,91.2L884.1,92.1L882.7,91.5L881.3,91.6L879.9,92.0L878.8,90.5L876.6,90.0L874.9,90.2L875.7,89.0L874.7,88.4L873.3,88.7L871.5,88.3L869.2,88.5L867.6,88.9L866.1,89.3L864.3,89.0L862.5,88.4L860.4,88.5L858.7,87.4L858.3,85.9L856.9,85.5L856.0,84.3L856.3,83.1L855.6,81.4L857.2,79.5L854.8,78.1L853.0,77.1L853.5,75.6L852.4,75.2L853.5,73.9L852.4,72.2L852.6,71.1L851.5,70.4L849.7,68.0L847.7,66.6L846.7,64.9L846.8,63.3L847.7,62.2L846.2,62.1L846.5,62.7L846.5,63.3L845.2,62.8L845.4,61.8L846.9,61.6L845.4,60.7L844.6,60.2L845.5,59.1L843.3,58.2L844.0,57.3L843.9,56.2L842.9,55.9L842.1,55.2L841.1,53.7L839.7,52.6L839.5,51.7L840.1,51.2L841.2,50.0L840.2,49.4L838.8,49.0L837.3,48.7L838.1,47.8L839.3,47.6L837.6,47.1L837.9,46.4L837.6,45.3L835.7,44.7L835.9,43.8L833.6,42.6L833.1,43.0L832.1,42.2L832.5,41.5L833.7,41.3L834.3,40.3L833.4,39.6L832.4,40.3L831.6,39.8L830.4,38.6L830.0,38.1L828.8,38.4L827.7,38.7L827.5,37.9L828.7,36.7L827.1,36.0L826.7,35.3L825.4,35.8L825.0,35.1L822.5,34.4L821.1,33.8L819.4,33.5L816.8,33.6L815.9,34.8L814.7,34.4L813.2,34.3L813.0,33.6L811.0,33.4L809.6,33.4L808.6,33.2L807.7,32.6L805.6,30.8L803.9,31.3L802.2,30.4L799.9,29.1L798.1,29.0L796.9,28.4L795.6,28.2L794.8,28.9L795.0,28.2L794.1,28.3L794.3,29.0L793.6,28.4L791.4,28.0L790.2,28.2L788.7,29.0L787.4,28.9L785.0,29.5L783.0,29.5L780.6,29.5L778.9,29.6L777.0,29.3L775.4,29.4L773.8,29.4L772.5,30.1L769.4,30.1L767.5,30.6L765.0,31.2L762.3,31.7L760.7,32.0L758.4,32.2L757.5,31.9L755.2,32.0L754.2,32.1L753.2,32.5L753.2,32.9L751.2,33.9L750.8,34.5L749.3,35.3L747.6,36.4L746.2,37.5L745.2,38.2L744.1,39.0L742.8,39.4L741.1,40.0L741.2,42.0L741.8,42.9L743.6,43.0L746.7,42.4L748.1,42.2L749.9,42.8L750.7,43.2L751.9,43.6L751.5,44.3L751.2,45.3L750.7,46.2L750.3,46.9L751.3,47.4L752.2,47.9L752.7,49.4L752.4,50.1L751.6,50.7L751.2,51.4L751.4,52.1L750.7,52.9L749.1,53.6L748.0,54.0L746.9,54.6L745.5,55.1L744.1,56.1L742.0,56.7L741.5,57.4L741.4,58.5L740.4,59.3L740.7,60.0L740.2,60.9L739.3,61.3L738.9,61.9L737.7,62.8L737.5,63.3L737.3,63.6L737.4,64.4L736.8,65.3L736.3,65.9L735.7,66.8L734.5,67.3L732.8,68.9L733.2,69.9L733.1,70.6L731.9,71.8L731.4,72.1L729.9,72.9L729.8,73.5L729.3,74.8L728.7,75.5L727.8,75.8L728.0,76.5L728.2,77.0L729.3,77.0L730.3,76.9L731.2,77.3L730.5,78.5L730.8,79.3L730.7,79.7L729.8,80.4L728.2,80.9L727.8,81.8L726.7,82.5L724.8,82.4L721.7,82.9L720.3,82.9L718.8,83.3L717.4,84.3L716.8,84.8L716.1,85.3L714.8,85.8L713.4,86.4L712.4,87.4L711.3,88.1L709.9,88.0L707.9,88.5L707.1,89.6L702.1,87.9L695.7,86.9L690.3,84.6L680.1,99.4L680.4,100.4L676.3,104.9L676.4,108.8L672.4,110.7L672.9,113.9L678.8,117.5L681.3,115.4L686.3,115.2L691.5,114.3L696.1,115.4L702.2,116.4L702.8,116.0L708.3,112.3L710.8,112.5L711.9,112.0L713.6,112.1L714.4,112.6L715.7,112.5L716.8,112.8L721.8,116.2L727.6,119.7L730.9,120.7L730.9,121.5L732.0,122.2L733.9,123.3L734.9,124.2L737.0,126.0L737.4,127.3L738.3,128.5L739.5,129.4L739.7,131.2L739.6,132.3L738.5,133.0L737.8,133.0L736.6,133.8L735.8,134.0L734.5,133.8L732.8,133.6L731.1,134.0L730.3,133.9L728.4,133.3L727.2,133.4L725.5,131.8L724.0,132.0L722.9,131.4L722.1,132.7L719.8,132.2L716.8,132.5L714.8,131.9L713.6,132.4L711.9,132.9L709.9,133.6L708.7,133.9L708.0,134.8L706.5,135.0L705.4,135.3L704.2,134.1L702.3,134.0L701.5,135.1L700.4,136.8L700.4,137.7L696.2,137.7L692.1,137.3L690.8,138.2L688.3,138.7L687.6,139.6L685.7,141.1L683.1,145.1L683.6,145.8L683.3,146.6L682.7,147.4L681.1,148.1L679.7,148.3L677.3,149.7L673.0,151.7L666.7,152.4L662.8,152.5L657.9,152.3L657.0,153.4L655.7,155.2L654.0,156.6L651.6,157.9L650.5,159.1L647.3,159.7L645.6,160.7L643.0,162.3L641.1,161.8L633.9,161.1L631.1,160.8L627.2,159.5L624.8,157.3L619.8,157.3L618.1,157.0L614.4,158.9L612.3,161.8L611.3,163.8L610.8,165.3L610.0,166.2L609.1,168.2L610.5,169.2L611.0,170.5L612.9,172.7L614.6,173.5L617.4,176.3L617.3,178.3L614.9,178.6L611.4,181.4L608.8,181.7L605.5,182.8L603.8,183.4L599.9,186.6L598.7,187.5L597.9,188.5L594.6,191.3L592.7,192.8L589.0,194.3L583.3,195.3L580.4,196.9L576.5,197.5L571.8,197.3L569.0,197.8L564.9,197.4L560.4,197.1L557.1,197.5L555.8,198.0L550.2,197.8L548.5,197.1L545.6,198.6L538.1,199.7L531.8,201.6L526.3,203.6L519.8,205.8L515.2,207.9L510.9,210.5L507.7,209.4L503.5,209.3L501.8,206.2L496.6,207.1L487.1,206.0L483.3,204.7L475.7,201.8L473.1,201.6L466.2,200.7L462.9,197.5L461.2,196.3L453.9,195.2L446.8,193.8L438.3,194.4L433.6,194.2L418.2,194.9L406.5,194.2L392.5,192.2L387.6,192.6L378.7,193.0L371.6,185.4L370.6,182.5L368.3,178.7L367.0,175.8L364.0,173.5L362.5,173.2L362.9,171.1L363.8,169.9L363.8,169.1L359.5,169.5L356.6,169.2L353.9,168.5L352.5,167.6L350.7,166.6L348.1,165.7L347.2,164.8L345.6,163.8L344.5,163.2L337.9,160.5L336.2,159.5L333.5,159.1L331.7,158.5L330.7,158.5L328.4,158.3L326.9,158.3L325.6,157.8L324.5,157.8L322.0,158.0L319.2,158.4L316.8,158.2L315.2,158.2L312.4,157.1L308.5,157.2L304.8,157.3L303.1,156.0L302.0,156.7L299.9,156.3L299.2,156.0L298.2,155.1L296.3,155.1L294.4,155.5L294.6,154.6L293.6,153.8L293.3,153.4L292.7,151.8L291.1,151.0L291.8,147.3L294.5,144.4L296.4,142.2L295.9,140.7L295.5,139.6L295.9,137.5L296.6,136.4L297.1,135.3L297.2,134.4L296.7,133.0L296.5,131.5L296.1,131.1L295.5,129.8L295.0,128.9L293.6,128.0L291.5,126.7L289.7,124.9L288.8,123.6L288.9,122.2L288.0,121.8L288.1,120.9L287.0,119.6L286.2,118.2L285.9,117.6L283.6,116.9L282.0,116.1L282.2,114.8L281.5,114.6L280.2,115.1L277.2,115.2L275.5,114.0L274.7,113.1L274.2,112.1L271.4,112.0L270.3,112.4L269.1,113.0L266.7,112.9L265.9,111.9L264.6,111.0L262.4,110.7L260.9,110.0L260.0,109.9L259.3,108.8L259.5,107.6L259.0,107.1L258.2,106.6L257.3,106.8L255.7,106.1L255.1,105.4L253.2,105.2L252.2,104.8L250.8,104.4L249.6,103.6L250.6,102.8L251.6,101.8L250.6,101.3L249.3,101.2L247.5,100.5L247.6,100.2L246.8,99.4L246.5,98.6L247.4,98.3L248.2,98.0L248.4,97.6L247.7,96.7L247.8,96.1L247.8,95.3L247.5,94.8L246.6,94.9L245.2,95.1L243.5,95.3L242.5,95.5L241.6,96.4L239.5,95.8L238.1,95.4L236.2,95.5L234.2,95.5L232.6,95.8L232.4,96.7L230.8,97.6L231.2,99.1L232.1,99.8L231.3,100.4L231.5,101.6L230.3,102.6L229.4,103.1L228.7,103.9L225.9,105.4L224.2,105.2L223.0,106.1L218.3,106.1L215.8,106.6L214.9,108.1L213.9,109.2L213.2,109.8L212.7,110.8L212.4,112.0L213.7,119.6L214.7,121.4L214.6,123.1L214.7,124.1L214.1,125.2L212.6,126.5L211.0,127.0L209.2,127.3L207.5,127.3L205.8,128.4L204.0,129.2L203.5,130.1L202.2,129.1L200.9,128.3L199.6,127.8L197.5,128.1L195.4,127.8L194.1,127.9L191.9,127.9L190.2,128.5L188.9,128.1L187.9,128.4L185.3,127.5L184.3,127.5L182.3,126.7L180.7,125.9L179.2,125.2L178.3,125.2L177.0,125.1L176.2,124.6L175.2,124.6L174.0,125.4L172.6,127.7L171.7,130.6L171.0,131.4L170.1,134.0L167.6,138.7L165.3,143.5L163.5,144.2L163.6,145.9L162.7,147.5L162.3,149.0L165.1,151.4L167.4,153.1L166.9,155.3L163.5,155.1L161.4,154.8L159.6,155.0L159.0,154.5L157.0,154.9L155.7,153.5L153.3,153.0L151.8,153.3L151.1,153.8L150.0,154.4L149.0,154.2L147.9,154.4L146.5,154.6L145.5,155.2L144.2,155.6L142.4,155.8L141.3,156.5L140.1,156.1L138.1,156.4L135.5,156.8L134.4,156.9L133.8,157.7L132.6,157.3L131.3,157.9L129.8,157.5L129.3,157.6L128.5,158.2L126.8,159.1L125.9,159.8L126.9,160.7L127.6,161.6L129.4,161.2L130.5,161.1L130.7,162.1L132.4,162.9L133.9,164.4L133.5,167.5L133.9,169.6L133.8,171.4L134.5,172.5L134.6,173.9L134.9,174.6L135.6,176.4L139.3,182.1L138.9,182.9L138.2,184.0L139.4,184.8L139.7,185.8L139.8,186.8L138.8,186.9L137.6,186.6L136.1,187.3L134.0,188.0L133.7,188.9L136.6,190.0L135.3,190.7L133.8,191.4L131.9,191.3L131.6,192.1L131.1,193.5L130.1,194.5L131.0,196.0L131.0,196.7L131.3,198.2L131.9,199.2L132.1,200.1L131.2,200.9L130.1,201.8L130.2,202.6L129.8,203.6L126.4,203.5L125.4,204.3L124.2,205.7L122.1,205.9L120.7,206.6L119.3,206.4L117.7,207.2L116.5,207.4L115.6,208.3L113.9,208.7L112.6,209.3L111.6,209.4L110.2,210.3L108.3,210.9L107.8,211.4L106.9,212.2L105.0,212.6L102.9,213.1L102.1,213.3L100.5,213.3L99.2,213.7L99.0,215.1L98.4,215.9L95.5,216.5L94.1,217.3L94.3,218.4L93.6,219.0L92.1,219.2L90.8,219.3L89.9,219.2L88.9,219.0L87.2,218.7L85.2,218.9L83.3,218.7L82.0,218.4L80.7,218.9L79.4,219.7L78.0,220.0L77.5,222.1L76.2,223.0L76.7,224.0L76.4,225.1L75.5,225.7L74.6,226.7L74.1,228.0L73.1,228.6L72.1,228.6L71.3,228.6L70.6,227.9L69.0,228.8L67.5,228.5L67.0,229.1L66.1,228.7L65.1,230.1L63.8,229.8L63.0,230.0L61.8,230.3L61.2,229.0L61.9,227.8L60.9,226.7L60.6,225.3L60.1,224.5L58.1,225.4L56.4,226.4L55.1,227.2L54.1,227.7L52.5,227.9L51.3,227.4L50.4,227.5L48.6,226.6L48.1,227.5L49.6,229.4L48.3,229.3L46.3,229.8L45.1,230.3L43.8,231.4L42.3,232.6L40.5,232.9L39.7,232.7L37.4,233.2L35.8,233.8L35.3,234.5L34.2,236.5L33.2,238.3L34.5,238.8L34.3,240.9L33.8,241.6L33.6,242.4L31.7,242.8L29.7,242.7L28.0,243.9L28.8,245.3L29.0,245.7L29.9,246.2L30.4,247.3L31.3,248.1L31.7,249.3L32.9,249.2L33.3,250.4L32.1,250.7L31.2,251.4L31.5,252.3L31.9,254.1L32.6,255.7L34.1,256.2L35.8,257.0L37.0,256.8L37.0,255.7L37.9,254.7L41.0,255.0L42.6,255.4L44.0,255.8L45.4,255.9L47.7,256.8L48.9,257.6L48.4,259.5L48.0,260.7L48.1,261.7L48.2,263.4L49.8,264.8L49.7,266.4L49.7,267.4L51.1,268.5L49.8,269.3L49.3,270.1L51.0,272.2L51.5,272.6L52.3,272.8L53.3,273.9L53.1,274.8L52.2,275.4L49.8,276.0L48.1,276.9L47.2,276.0L45.8,276.7L44.8,276.3L44.0,276.5L42.9,277.2L42.8,278.0L43.3,279.1L44.3,279.8L45.3,279.2L47.0,279.8L48.0,279.4L48.6,280.0L49.3,281.2L49.8,280.6L51.4,280.0L53.6,280.0L54.7,280.8L56.3,280.8L57.0,281.7L57.6,282.8L58.0,284.5L59.2,284.4L60.0,283.9L62.1,284.0L64.3,285.3L65.1,286.9L66.8,289.2L66.3,290.7L67.2,292.0L66.5,293.0L65.3,293.4L66.0,295.0L67.0,295.1L68.1,295.9L68.5,297.9L69.7,298.2L70.9,297.9L71.9,297.6L73.5,297.2L74.8,296.6L75.2,297.5L75.0,298.2L76.9,299.3L79.3,300.5L81.1,301.7L82.7,301.7L84.6,302.8L86.7,302.6L87.7,303.6L89.6,303.4L90.7,303.7L91.7,303.4L92.9,303.7L93.8,303.2L94.7,303.3L95.6,303.6L96.2,303.4L97.4,303.6L99.1,303.2L98.6,304.0L97.1,305.1L97.2,307.2L97.9,309.0L98.8,309.1L98.8,310.1L100.0,311.1L100.1,312.4L100.5,314.1L100.2,315.0L101.0,316.0L102.2,316.7L103.5,316.9L104.5,317.1L105.5,317.5L105.8,318.2L107.8,318.0L108.6,318.6L109.3,319.3L110.7,320.5L111.8,320.4L112.6,321.2L111.6,322.4L111.1,323.6L110.4,323.5L109.2,323.8L107.1,324.6L108.2,325.9L108.2,327.2L108.5,327.8L108.6,329.1L107.5,330.9L107.9,331.7L108.3,332.7L110.0,334.8L111.5,335.4L112.6,336.2L113.5,337.4L113.9,338.1L114.7,338.6L114.8,341.0L116.2,342.0L115.9,343.5L116.5,344.5L116.4,346.1L117.0,347.3L116.1,348.5L115.0,348.9L114.2,350.1L113.3,350.6L111.8,351.3L110.3,350.2L108.9,349.1L108.9,347.1L108.3,345.7L107.3,346.4L106.0,346.7L104.9,347.2L103.4,347.8L103.5,348.7L104.0,350.6L104.3,351.4L104.2,352.8L103.5,353.4L104.7,354.2L106.3,355.6L107.7,356.6L108.7,357.5L107.1,358.7L107.8,359.8L109.2,361.3L109.9,362.3L108.9,363.3L108.1,364.3L109.1,365.0L108.5,366.2L110.1,367.2L110.5,367.4L111.2,368.3L111.9,369.9L113.2,371.2L115.0,371.4L115.7,372.4L117.1,371.4L118.5,370.5L118.8,371.3L120.7,372.3L122.4,372.3L123.4,372.5L125.1,373.9L126.3,374.2L127.0,375.1L127.1,376.4L128.3,377.7L130.9,377.9L132.5,378.3L134.2,379.0L135.3,379.5L136.6,379.8L138.2,380.5L140.1,382.0L141.9,382.8L143.4,383.1L144.2,384.6L144.6,385.6L144.9,386.6L146.8,386.7L147.2,385.9L147.0,384.5L148.9,383.8L149.3,382.7L149.5,382.2L149.1,381.2L149.1,380.7L149.9,380.6L151.4,381.2L152.3,380.6L154.0,380.6L156.3,381.2L157.5,381.4L158.6,381.7L159.8,381.6L160.1,382.6L160.4,383.8L161.4,384.7L161.0,385.8L163.0,386.3L163.9,386.6L164.8,387.0L165.9,387.7L167.6,388.6L167.8,389.4L169.5,389.8L169.8,390.5L170.8,391.2L171.8,391.6L173.1,392.0L174.9,392.9L176.0,392.7L176.9,392.9L177.8,394.4L179.4,395.7L180.1,396.6L180.7,397.7L182.0,399.0L182.7,399.4L183.8,399.0L185.8,398.3L186.6,397.6L188.1,397.3L188.9,397.6L190.7,397.7L192.0,398.4L191.5,399.1L192.1,400.3L191.9,401.4L192.7,401.6L192.5,403.8L194.0,404.2L195.1,404.3L195.5,404.8L196.3,406.1L198.4,406.2L199.1,406.9L199.6,407.7L202.0,408.7L203.9,408.4L205.1,407.0L206.6,407.5L207.0,408.4L206.7,409.8L206.2,411.6L207.0,412.4L208.4,413.0L210.0,413.1L211.3,412.2L213.5,412.8L214.2,413.0L215.3,411.6L216.3,414.3L217.6,415.4L218.0,416.5L218.8,418.3L220.4,418.8L220.8,417.0L221.5,416.0L222.5,414.8L222.7,416.0L223.7,417.7L225.6,418.4L226.4,418.7L227.4,418.0L227.8,416.6L228.3,415.7L228.9,416.2L229.7,415.9L231.0,416.0L231.1,416.8L232.8,417.0L233.7,417.5L235.4,418.1L236.7,419.7L238.4,420.2L239.2,419.7L240.4,420.0L241.3,420.0L243.8,419.5L245.1,419.9L246.0,420.3L246.9,419.0L249.1,418.7L250.8,418.8L251.9,419.4L252.0,418.6L253.3,418.2L254.1,418.2L256.3,417.7L257.4,417.2L258.7,416.9L259.7,415.9L260.6,416.3L262.6,417.0L263.2,418.5L263.8,419.6L263.5,421.2L263.3,422.3L262.7,423.3L262.4,424.6L262.6,426.4L263.5,426.7L264.3,427.6L264.6,428.6L266.6,428.9L267.9,427.7L267.6,425.8L267.2,424.4L267.5,423.2L268.4,422.3L270.1,419.6L272.3,417.8L273.4,416.0L274.8,414.8L277.5,414.3L278.8,413.9L280.5,414.4L281.4,415.2L282.4,415.2L283.4,414.5L284.4,415.1L286.5,416.0L287.5,416.4L288.7,416.4L289.9,417.0L292.2,416.5L293.2,417.1L294.6,418.1L295.8,418.3L296.6,419.5L298.6,418.9L298.7,417.8L300.0,417.8L303.3,417.3L303.6,418.3L305.5,419.0L304.8,419.5L305.5,420.1L305.7,422.0L304.8,423.0L304.8,423.7L305.8,424.8L307.2,425.4L309.0,425.1L311.7,425.3L312.5,426.6L312.9,428.5L312.4,429.6L311.9,430.9L312.7,431.9L313.2,434.8L315.9,434.2L319.1,433.7L321.4,433.3L323.8,434.1L327.6,434.3L330.4,434.0L336.4,433.2L339.4,432.2L339.8,430.0L343.0,426.8L345.5,424.4L347.6,423.7L349.0,423.6L350.2,423.5L353.2,422.1L355.0,421.4L356.7,420.5L358.5,419.7L362.5,417.0L363.2,415.6L364.2,414.8L367.8,413.4L369.6,413.2L370.9,412.8L371.4,413.6L372.6,414.3L374.3,414.1L377.0,413.8L378.4,415.5L378.9,415.1L379.9,415.1L381.1,416.2L382.5,417.4L383.7,418.0L385.2,419.0L386.7,419.1L388.3,420.2L389.1,421.2L389.7,420.7L392.0,419.0L393.1,419.1L393.8,418.7L394.5,417.1L393.9,416.4L392.8,416.2L393.1,415.3L393.7,414.3L394.2,413.7L394.6,412.8L395.3,412.7L395.6,412.0L395.8,410.8L395.9,410.2L396.9,409.1L397.9,409.2L399.4,410.2L399.9,411.6L401.0,412.3L402.0,411.8L403.6,414.1L404.3,414.2L405.0,414.8L405.9,415.8L405.7,418.1L406.6,419.0L406.8,420.2L407.8,422.6L408.3,424.6L409.4,424.7L410.1,422.6L410.7,422.9L412.0,422.7L412.4,423.8L413.6,423.6L414.0,425.2L414.0,426.1L414.3,427.0L414.7,428.2L414.5,429.2L414.4,430.4L415.2,431.8L414.7,432.5L414.7,434.8L414.9,437.2L415.1,437.7L415.3,439.0L415.1,440.3L415.0,441.3L413.9,443.1L414.4,444.3L414.4,445.4L413.6,446.4L413.2,445.6L412.7,446.9L413.2,448.2L414.3,450.0L413.3,450.8L411.6,450.2L410.5,451.8L409.7,452.9L408.5,454.4L407.3,453.7L406.4,454.3L405.5,455.2L405.6,457.2L405.0,457.6L403.6,458.5L402.5,459.7L401.6,459.1L400.3,460.6L399.2,461.8L399.1,463.3L400.2,464.9L399.9,465.7L398.1,466.2L396.5,467.0L396.9,469.1L396.3,471.5L398.4,471.3L399.1,472.8L398.3,473.7L399.9,474.3L399.3,475.4L399.6,475.8L399.3,476.5L398.8,476.8L397.8,478.2L396.2,479.1L397.6,479.9L398.1,480.7L399.1,480.2L399.8,479.6L400.6,479.1L401.9,478.6L403.2,477.8L404.9,476.9L405.3,476.8L405.5,476.8L406.8,476.5L409.2,476.5L410.9,476.3L412.6,477.0L413.9,476.7L416.0,476.2L416.9,475.9L415.8,477.8L414.6,478.7L413.8,478.8L414.0,479.7L413.7,481.3L415.5,481.6L415.9,482.7L416.4,483.8L417.0,484.4L415.8,485.2L416.9,486.1L417.6,488.0L417.4,488.4L417.7,489.4L417.4,490.6L419.7,491.0L420.4,492.1L422.7,492.3L424.1,491.5L425.5,492.3L426.9,492.5L427.0,494.0L426.9,495.0L425.5,494.8L424.9,496.1L423.8,497.2L424.0,497.9L424.3,500.5L423.3,502.4L423.0,503.4L422.4,504.9L421.5,505.9L421.2,506.3L423.3,507.0L424.9,507.2L426.7,507.2L427.7,507.2L428.7,507.2L430.5,507.7L432.1,507.7L433.6,508.5L433.8,509.9L433.3,511.4L434.9,513.7L436.1,513.3L435.8,515.0L436.1,516.2L436.9,516.1L437.7,516.8L439.5,515.9L441.5,516.9L443.0,517.0L445.3,516.0L446.2,515.2L447.1,514.3L447.9,513.5L448.5,513.3L449.7,513.1L451.3,512.2L451.2,513.4L452.0,514.9L452.6,515.4L452.9,516.3L452.4,517.4L452.3,518.8L453.2,519.7L453.9,521.2L456.2,520.5L458.7,520.4L458.7,521.3L460.2,521.7L461.6,520.7L462.2,520.1L460.9,519.4L460.9,517.7L461.3,516.1L461.0,515.0L462.1,514.5L461.4,514.2L460.9,512.8L460.8,511.0L460.2,510.3L459.7,509.7L459.0,508.6L458.7,506.7L457.8,505.1L459.0,504.4L459.4,502.6L460.4,501.4L462.1,501.7L462.7,502.8L463.3,502.0L465.5,501.7L467.0,502.6L468.9,502.3L469.7,500.2L471.0,499.1L471.5,498.0L472.6,496.9L473.5,498.0L474.8,498.2L477.0,499.2L478.3,499.8L479.0,501.3L480.6,502.0L481.2,501.3L482.6,499.7L483.5,498.9L484.5,497.5L485.0,496.4L486.9,497.2L487.1,498.7L488.2,499.7L488.8,498.0L491.4,497.9L491.8,498.2L493.3,499.8L493.8,500.1L495.6,500.8L495.8,499.7L496.1,497.6L497.2,496.4L499.4,495.9L499.4,496.9L500.4,497.6L501.9,497.5L503.5,496.3L505.8,496.2L506.7,495.7L507.3,495.1L508.6,493.9L507.7,491.8L508.9,491.0L510.0,491.1L512.2,489.5L513.5,489.2L514.7,488.6L516.2,487.9L517.1,489.1L518.4,490.4L519.3,490.8L520.3,492.5L521.8,492.5L522.7,493.1L523.6,493.7L524.4,494.4L526.0,494.4L527.4,493.5L528.4,493.6L530.2,494.9L530.5,495.5L531.8,495.3L533.8,494.8L534.7,494.6L535.7,495.3L536.4,495.1L536.9,495.5L538.0,496.3L538.0,496.3L538.0,496.3L538.3,496.3L538.4,496.3L538.5,496.2L538.7,497.0L538.0,497.9L537.0,499.9L535.5,499.5L535.1,501.5L535.1,503.0L536.2,503.7L536.6,504.7L536.4,505.9L536.7,506.6L536.9,508.4L536.8,509.3L538.2,508.6L539.2,508.9L540.4,509.7L541.4,509.5L542.3,510.4L541.7,511.4L543.7,512.4L544.4,513.0L545.6,512.8L546.9,513.8L547.3,514.9L548.7,513.9L548.9,514.8L550.4,514.6L552.3,514.5L554.2,514.2L555.1,514.4L555.6,515.0L557.2,515.6L559.7,516.0L559.9,514.8L560.6,515.4L560.3,516.4L562.8,515.8L565.8,513.6L566.8,514.1L568.0,514.4L568.2,514.7L569.5,514.6L571.1,514.9L573.6,515.2L574.2,515.3L573.2,516.5L572.8,517.5L574.2,518.0L575.8,517.4L579.5,517.0L580.9,516.4L581.4,515.4L582.8,516.9L584.6,517.1L585.9,517.4L583.9,518.4L583.8,520.5L582.4,522.9L582.2,526.0L583.2,528.2L584.2,529.8L584.5,530.9L585.7,531.9L585.3,533.0L586.1,534.3L586.3,535.9L588.6,535.2L590.0,535.8L591.9,535.4L593.3,534.7L594.3,534.4L595.7,532.7L595.0,530.4L594.5,528.8L593.4,528.8L593.4,526.7L592.4,526.2L590.6,526.0L590.1,524.2L590.6,523.1L591.2,523.2L593.4,522.0L594.3,521.1L595.6,520.8L597.5,520.3L599.2,518.4L601.0,518.3L603.2,517.2L605.3,516.9L606.9,517.2L606.6,517.6L608.1,516.8L609.5,516.1L610.7,516.0L612.0,515.8L613.1,515.9L614.0,514.6L615.5,515.1L616.3,515.1L617.6,514.7L618.0,513.9L617.4,513.1L620.1,511.8L621.0,512.7L621.7,513.2L624.4,512.7L624.9,511.7L626.2,512.4L628.5,511.6L630.9,509.9L632.3,511.1L634.1,509.4L633.8,508.0L634.7,506.8L635.5,508.5L637.0,510.4L638.3,510.1L640.1,508.5L641.4,507.6L641.9,507.1L641.5,506.0L641.9,505.5L642.5,504.1L642.6,503.5L643.6,502.3L642.9,501.9L642.1,502.4L643.6,501.4L644.7,500.6L643.7,497.6L645.0,498.3L645.7,499.7L646.7,501.7L648.0,501.3L648.3,500.9L649.9,500.9L651.1,500.4L652.1,500.3L653.2,500.1L654.5,499.5L655.9,500.7L656.4,502.0L658.1,501.4L658.1,500.4L657.2,499.8L657.6,498.6L657.4,498.2L657.9,497.6L659.6,496.7L659.9,497.7L660.1,499.1L662.0,499.7L662.8,500.3L663.2,498.9L664.4,497.6L665.2,496.7L666.9,496.9L667.6,496.1L668.9,496.8L669.4,497.8L670.6,498.3L672.8,498.8L673.3,497.2L672.7,496.7L674.0,495.5L675.7,496.0L676.2,497.4L677.5,496.7L678.8,496.5L680.2,495.8L681.5,496.0L683.3,494.5L685.2,494.7L687.1,494.5L688.2,493.2L688.0,492.1L688.0,491.4L690.1,490.4L691.7,490.4L691.6,489.7L692.7,487.1L692.7,486.6L693.1,486.2L693.6,485.4L694.8,485.8L696.0,485.3L699.1,484.8L700.6,485.0L701.6,483.9L702.3,482.7L703.9,482.8L704.6,481.0L705.3,479.9L706.8,479.7L707.9,478.2L708.9,477.6L710.0,475.9L711.1,474.8L712.4,474.1L711.2,472.8L710.7,471.9L711.8,469.5L712.6,469.7L715.7,470.1L716.8,468.9L718.5,469.5L719.4,470.3L720.5,468.6L720.0,468.3L720.8,468.1L722.0,466.4L719.9,465.4L720.7,465.3L722.4,465.0L723.2,464.7L725.1,464.8L724.3,464.4L724.5,463.7L725.8,463.6L725.4,463.6L725.2,463.4L725.6,462.1L724.5,462.6L724.9,461.2L725.1,460.4L724.4,459.8L724.4,459.6L723.8,459.3L724.0,459.1L724.6,458.8L724.9,459.4L726.2,459.7L726.1,460.4L725.8,460.9L726.5,461.5L727.0,461.9L727.6,462.1L727.4,460.6L727.3,459.6L728.9,460.1L730.1,460.1L730.4,459.5L730.4,458.6L729.1,457.9L728.7,457.4L727.6,456.5L728.7,455.9L729.5,455.7L729.7,456.7L730.6,455.8L731.5,455.5L732.0,456.7L732.8,456.3L733.1,457.0L733.7,457.4L733.8,456.5L734.4,456.9L734.5,457.9L735.5,457.3L735.6,456.4L735.7,455.9L735.9,456.3L737.0,456.4L738.6,456.1L738.5,455.8L737.8,454.9L738.9,454.7L738.2,453.9L737.4,452.8L735.8,454.0L736.3,455.2L735.7,455.8L734.7,455.1L734.3,454.0L733.6,453.5L732.6,452.9L734.6,452.6L734.9,452.0L735.1,449.4L736.4,447.6L735.6,447.4L734.8,446.0L735.5,444.7L737.1,443.4L737.7,443.1L738.5,443.1L739.9,442.4L739.0,442.4L738.1,440.9L736.7,438.5L734.6,438.7L734.8,437.9L735.5,436.7L738.1,437.2L738.7,438.0L739.1,437.2L739.8,435.8L741.6,436.1L740.2,437.3L739.9,438.3L738.4,438.7L738.6,440.0L739.7,439.0L740.8,438.7L742.1,438.4L742.3,437.2L743.0,436.3L742.7,435.6L742.2,435.2L741.3,435.2L742.4,434.3L742.6,433.8L744.2,433.9L744.9,432.7L745.2,432.0L746.6,431.3L747.7,430.4L749.0,430.2L749.1,428.7L750.8,427.1L751.4,425.3L750.4,423.8L751.5,422.1L752.9,420.7L753.5,421.0L755.1,418.9L756.4,419.9L757.6,420.2L758.0,420.6L758.3,420.3L758.3,420.2L758.9,420.0L758.5,419.2L757.5,418.9L755.8,418.1L756.9,415.8L757.8,415.4L758.7,417.0L760.6,416.3L761.7,415.3L763.0,413.5L764.2,412.8L764.9,413.7L766.2,412.2L765.7,412.0L766.6,411.1L765.9,409.5L765.1,408.6L764.3,407.3L766.5,406.4L766.5,404.2L767.8,403.6L766.9,402.3L766.1,401.2L765.4,399.9L766.9,400.2L767.7,399.5L768.4,400.4L769.5,400.5L770.8,400.7L771.1,399.7L770.9,399.1L771.3,398.1L770.4,397.8L770.3,396.8L770.9,395.8L770.9,394.8L771.2,393.8L770.8,392.4L769.3,392.5L770.3,390.7L772.0,389.6L773.5,388.7L771.4,388.5L770.9,387.5L768.8,387.5L767.0,387.0L766.0,385.8L764.6,384.0L762.0,381.7L761.0,380.8L758.8,380.2L756.9,378.3L758.9,377.2L760.2,376.5L762.5,375.7L765.2,374.6L769.8,374.5L770.8,376.4L772.6,377.7L772.4,377.0L771.2,376.3L770.8,374.8L771.2,373.7L770.9,371.4L768.4,368.6L765.1,365.9L762.2,364.3L761.7,363.2L762.6,362.6L765.6,364.0L768.5,365.0L771.0,364.6L770.9,362.2L769.6,358.4L767.8,355.9L764.0,354.3L763.0,353.7L763.5,352.4L762.5,349.8L761.4,349.2L758.3,348.3L756.3,347.2L755.7,346.7L754.7,345.7L755.5,344.8L755.3,342.8L754.7,340.8L754.0,339.7L753.2,337.5L753.1,336.5L752.0,336.0L751.1,333.2L750.0,331.6L748.8,329.3L748.1,328.1L746.0,323.2L745.4,321.3L740.1,318.9L737.3,318.1L734.7,316.9L732.4,315.7L732.3,314.5L732.9,314.4L732.1,314.0L731.1,314.3L729.5,313.8L728.6,313.3L728.6,311.8L729.0,310.0L729.8,310.3L729.8,309.7L730.7,309.5L731.9,308.9L731.6,307.2L732.9,305.9L733.6,305.4L734.2,304.5L735.5,302.1L736.3,301.3L737.1,301.9L737.5,301.3L738.0,301.3L739.5,301.0L739.9,299.6L739.5,299.1L740.8,299.8L741.1,298.3L742.4,297.2L743.0,296.9L743.2,297.2L743.8,296.7L745.3,295.9L745.1,295.2L744.5,295.6L743.7,295.5L744.3,294.5L743.0,294.0L742.3,293.5L742.8,292.8L744.0,292.3L744.6,292.5L745.4,292.7L745.5,291.9L746.1,292.8L745.8,294.6L747.8,294.1L749.0,293.8L750.1,293.6L751.0,293.5L751.3,293.1L751.1,291.8L750.7,291.3L752.0,290.5L752.3,288.4L753.5,288.5L753.7,289.3L754.6,289.2L754.6,288.6L755.4,288.4L755.7,287.2L754.6,286.8L753.6,286.1L754.8,286.2L756.4,286.8L758.4,285.6L760.5,284.8L761.4,284.6L762.0,284.2L763.6,283.4L764.6,282.8L763.4,283.5L764.8,284.2L766.0,284.5L766.3,283.0L767.7,282.6L770.2,281.3L771.4,280.8L772.1,281.7L773.1,281.2L773.5,281.2L774.0,281.9L774.0,282.6L775.5,282.7L776.6,282.9L777.2,282.3L778.3,282.1L777.9,281.6L778.8,282.0L779.8,280.7L780.2,279.7L778.9,279.7L778.6,279.4L779.5,277.9L780.1,277.6L780.4,276.3L780.1,275.7L780.6,274.7L781.9,274.6L782.0,273.9L781.1,273.7L778.9,273.9L777.7,273.9L775.6,273.7L775.2,273.1L773.8,273.6L773.8,272.3L772.7,271.8L771.6,272.2L770.1,273.0L766.2,273.0L764.8,273.2L763.3,273.0L762.1,271.8L762.6,271.2L761.3,270.6L760.6,271.4L758.6,271.1L758.4,270.4L758.4,269.6L756.5,269.3L755.1,268.3L754.0,267.6L753.5,267.7L750.7,268.2L749.7,268.6L747.6,268.7L744.1,269.7L744.8,270.2L743.9,270.8L744.4,271.8L742.9,272.9L741.6,273.4L739.9,273.9L738.2,274.5L738.8,275.5L738.6,276.7L737.7,277.3L736.0,278.3L735.7,277.8L732.8,278.2L730.9,278.3L729.9,278.1L728.5,276.8L728.4,276.0L727.3,276.4L726.6,276.6L725.9,275.6L724.4,272.7L725.1,270.8L726.5,269.6L729.1,269.6L729.5,269.0L728.6,267.9L727.3,267.8L727.0,266.2L724.9,263.6L722.4,262.6L719.6,262.9L719.1,263.8L718.2,264.1L717.7,263.3L716.6,263.4L715.1,263.1L712.7,262.2L710.7,261.8L708.4,260.8L709.2,259.7L709.0,259.1L706.6,259.3L705.8,258.1L704.5,257.0L704.4,256.7L704.7,255.0L706.0,254.4L704.9,253.3L704.6,252.4L706.6,251.8L708.1,251.0L707.8,250.4L708.0,247.9L709.6,246.7L711.1,246.5L711.9,247.0L712.9,248.6L714.9,249.6L715.8,250.2L718.3,251.2L718.7,249.8L719.0,248.2L719.8,247.4L722.5,247.7L723.7,247.5L724.6,247.1L723.6,248.0L725.0,247.3L725.9,246.6L727.2,245.5L729.5,244.3L730.2,243.1L730.9,238.6L733.5,237.5L733.6,236.3L734.8,236.0L735.8,235.7L737.4,235.3L738.2,235.2L738.4,234.7L739.7,234.4L742.0,233.4L743.1,233.1L746.3,231.9L748.2,231.5L748.6,229.9L749.9,229.1L750.1,228.2L750.1,227.6L751.3,226.9L751.8,226.3L753.5,224.7L753.8,224.1L755.7,223.7L756.4,223.2L755.7,222.9L755.5,222.3L756.1,222.6L757.1,222.1L757.9,221.3L759.6,221.6L761.4,221.0L763.6,221.2L764.5,221.6L764.8,221.8L766.4,221.9L767.2,221.4L768.5,220.9L769.5,222.3L770.3,223.7L771.7,224.3L773.2,224.5L773.3,225.2L775.1,226.6L775.4,227.2L775.1,227.8L774.2,228.1L773.6,229.1L773.0,229.2L773.0,229.8L771.9,229.7L771.7,230.8L770.5,231.5L771.3,231.9L770.6,232.5L768.6,234.2L767.9,235.4L766.7,235.5L764.7,236.6L764.1,236.8L763.4,238.2L763.7,239.1L762.9,239.8L761.0,240.6L760.0,240.8L759.4,241.9L760.4,242.1L760.1,243.2L759.7,243.9L760.7,243.8L761.4,244.0L762.6,244.8L763.2,245.3L763.9,245.4L765.5,244.8L766.9,244.6L766.2,245.1L765.5,245.4L765.6,246.3L765.0,246.8L765.8,247.3L765.6,248.6L765.8,248.0L764.6,247.9L764.9,248.6L762.6,249.4L760.8,249.6L760.2,250.2L758.7,250.4L757.3,251.0L758.0,251.6L757.9,252.8L758.1,254.0L759.9,253.0L760.4,253.0L761.5,252.5L763.8,252.6L765.4,251.9L766.8,251.7L766.0,250.6L766.1,250.3L767.3,249.8L768.1,249.4L769.2,250.7L769.8,249.8L769.6,249.4L769.9,248.9L770.7,249.3L772.2,248.9L772.0,248.2L773.2,247.6L773.2,247.2L773.7,246.2L775.5,244.9L776.9,244.1L777.6,243.5L778.5,243.6L779.5,243.4L781.1,242.3L781.8,242.0L784.3,240.9L785.7,240.6L786.3,240.4L786.8,239.8L788.9,239.9L789.9,239.6L790.5,239.3L790.8,238.9L792.0,238.4L792.6,238.4L793.9,238.4L794.8,237.8L795.5,237.9L796.5,237.7L797.0,237.2L798.8,237.3L801.2,237.3L803.5,237.3L804.3,238.4L805.2,236.6L805.3,236.2L805.3,236.1L806.3,235.6L807.3,234.7L807.1,233.8L808.5,232.4L809.5,231.8L809.8,231.2Z"/>
</svg>