<svg width="452" height="376" viewBox="0 0 452 376" fill="none" xmlns="http://www.w3.org/2000/svg">
  <!--  Figma0�.png
P����n�kE1ub CSS �6 -->
  <path
    d="M290.127 61.5H336.627L381.127 89.5H397.627L451.127 129V150L420.627 166.5H322.627L306.627 180.5L276.127 213L290.127 232L322.627 250.5H290.127V276H276.127L255.127 290.5L241.127 250.5L227.127 276L201.127 323V358L152.127 374.5L114.627 290.5L103.127 292.5L79.6267 246L68.1267 264.5L56.6267 213V150L47.1267 119.5L26.1267 80L0.626709 59L12.1267 31L0.626709 17L12.1267 0.5H37.6267L56.6267 45L91.6267 59L103.127 75.5L135.627 61.5V45L166.127 31V19.5L182.627 0.5H201.127H215.127V19.5L241.127 31L255.127 61.5V75.5H276.127L290.127 61.5ZM290.127 61.5L322.627 75.5"
    fill="currentColor"
  />
</svg>
